<svg xmlns="http://www.w3.org/2000/svg" xmlns:xlink="http://www.w3.org/1999/xlink" width="48" height="48" viewBox="0 0 48 48"><defs><style>.a{fill:#ec7700;}.b{fill:#f19226;}.c{fill:#ee7f00;}.d{fill:#fff;}.e{filter:url(#a);}</style><filter id="a" x="0" y="0" width="48" height="48" filterUnits="userSpaceOnUse"><feOffset dy="1" input="SourceAlpha"/><feGaussianBlur stdDeviation="2" result="b"/><feFlood flood-color="#766767" flood-opacity="0.078"/><feComposite operator="in" in2="b"/><feComposite in="SourceGraphic"/></filter></defs><g transform="translate(-81 -504)"><g transform="translate(69 198)"><g class="e" transform="matrix(1, 0, 0, 1, 12, 306)"><path class="a" d="M18,0A18,18,0,1,1,0,18,18,18,0,0,1,18,0Z" transform="translate(6 5)"/></g><path class="b" d="M14.971,0A14.971,14.971,0,1,1,0,14.971,14.971,14.971,0,0,1,14.971,0Z" transform="translate(21.029 314.029)"/><path class="c" d="M12.239,0A12.239,12.239,0,1,1,0,12.239,12.239,12.239,0,0,1,12.239,0Z" transform="translate(23.761 316.761)"/></g><g transform="translate(117.994 483)"><g transform="translate(-19.994 37)"><path class="d" d="M11.385,54.6a1.049,1.049,0,0,0-1.585,0c-.371.368-.741.735-1.106,1.109a.218.218,0,0,1-.305.056c-.24-.131-.5-.237-.726-.38a11.5,11.5,0,0,1-2.772-2.523A6.567,6.567,0,0,1,3.9,51.272a.228.228,0,0,1,.056-.293c.371-.358.732-.726,1.1-1.093a1.053,1.053,0,0,0,0-1.623c-.29-.293-.579-.579-.869-.872s-.595-.6-.9-.9a1.055,1.055,0,0,0-1.585,0c-.374.368-.732.744-1.112,1.106a1.8,1.8,0,0,0-.567,1.218,5.16,5.16,0,0,0,.4,2.221,13.494,13.494,0,0,0,2.4,3.99,14.822,14.822,0,0,0,4.909,3.84,7.1,7.1,0,0,0,2.719.791,1.993,1.993,0,0,0,1.71-.651c.318-.355.676-.679,1.012-1.018a1.06,1.06,0,0,0,.006-1.613Q12.279,55.488,11.385,54.6Z" transform="translate(-0.006 -44.7)"/><path class="d" d="M241.23,100.429l1.149-.2A5.159,5.159,0,0,0,238.016,96l-.162,1.156a3.987,3.987,0,0,1,3.376,3.273Z" transform="translate(-230.446 -93.01)"/><path class="d" d="M247.775,2.423A8.475,8.475,0,0,0,242.916,0l-.162,1.156a7.395,7.395,0,0,1,6.257,6.064l1.149-.2A8.537,8.537,0,0,0,247.775,2.423Z" transform="translate(-235.193)"/></g></g></g></svg>