<svg xmlns="http://www.w3.org/2000/svg" width="72.001" height="72.001" viewBox="0 0 72.001 72.001"><defs><style>.a{fill:#fff;}.b{fill:#6095cf;}.c{fill:#f36a10;}.d,.e{stroke:none;}.e{fill:#e7e8e8;}</style></defs><g transform="translate(-175 -174)"><g transform="translate(156 -507)"><g class="a" transform="translate(19 681)"><path class="d" d="M 66.46244049072266 71.7509765625 L 5.538538455963135 71.7509765625 C 2.622428178787231 71.7509765625 0.2499982863664627 69.37854766845703 0.2499982863664627 66.46244049072266 L 0.2499982863664627 5.538538455963135 C 0.2499982863664627 2.622428178787231 2.622428178787231 0.2499982863664627 5.538538455963135 0.2499982863664627 L 66.46244049072266 0.2499982863664627 C 69.37854766845703 0.2499982863664627 71.7509765625 2.622428178787231 71.7509765625 5.538538455963135 L 71.7509765625 66.46244049072266 C 71.7509765625 69.37854766845703 69.37854766845703 71.7509765625 66.46244049072266 71.7509765625 Z"/><path class="e" d="M 5.538536071777344 0.5 C 2.760276794433594 0.5 0.5 2.760276794433594 0.5 5.538536071777344 L 0.5 66.46244049072266 C 0.5 69.24069976806641 2.760276794433594 71.5009765625 5.538536071777344 71.5009765625 L 66.46244049072266 71.5009765625 C 69.24069976806641 71.5009765625 71.5009765625 69.24069976806641 71.5009765625 66.46244049072266 L 71.5009765625 5.538536071777344 C 71.5009765625 2.760276794433594 69.24069976806641 0.5 66.46244049072266 0.5 L 5.538536071777344 0.5 M 5.538536071777344 0 L 66.46244049072266 0 C 69.52128601074219 0 72.0009765625 2.479690551757812 72.0009765625 5.538536071777344 L 72.0009765625 66.46244049072266 C 72.0009765625 69.52128601074219 69.52128601074219 72.0009765625 66.46244049072266 72.0009765625 L 5.538536071777344 72.0009765625 C 2.479690551757812 72.0009765625 0 69.52128601074219 0 66.46244049072266 L 0 5.538536071777344 C 0 2.479690551757812 2.479690551757812 0 5.538536071777344 0 Z"/></g></g><g transform="translate(-57.123 -70.416)"><g transform="translate(253.124 260.416)"><g transform="translate(0 0)"><path class="b" d="M263.629,286.319h-1.72V273.489h-2.248a6.537,6.537,0,0,1,0-13.073h17.8v1.72h-17.8a4.816,4.816,0,0,0,0,9.633h3.969Z" transform="translate(-253.124 -260.416)"/></g><g transform="translate(20.135 0)"><path class="b" d="M393.622,286.319l-.042-14.55h3.971a4.816,4.816,0,0,0,0-9.633v-1.72a6.537,6.537,0,0,1,0,13.073h-2.246l.037,12.824Z" transform="translate(-393.58 -260.416)"/></g></g><g transform="translate(261.833 287.535)"><g transform="translate(0 0)"><rect class="c" width="0.683" height="1.72"/></g><g transform="translate(1.504 0)"><path class="c" d="M334.692,451.3h-1.408v-1.72h1.408Zm-2.229,0h-1.408v-1.72h1.408Zm-2.229,0h-1.408v-1.72h1.408Zm-2.229,0H326.6v-1.72H328Zm-2.229,0h-1.408v-1.72h1.408Z" transform="translate(-324.368 -449.583)"/></g><g transform="translate(12.65 0)"><rect class="c" width="0.683" height="1.72"/></g></g><g transform="translate(261.905 290.649)"><path class="c" d="M321.114,481.093a6.746,6.746,0,0,1-6.738-6.738V471.3h1.72v3.051a5.018,5.018,0,1,0,10.035,0V471.3h1.72v3.051A6.745,6.745,0,0,1,321.114,481.093Z" transform="translate(-314.376 -471.305)"/></g><g transform="translate(267.639 287.75)"><path class="c" d="M356.1,461.1h-1.72v-1.365h1.72Zm0-2.162h-1.72v-1.365h1.72Zm0-2.162h-1.72v-1.365h1.72Zm0-2.162h-1.72v-1.365h1.72Zm0-2.162h-1.72v-1.365h1.72Z" transform="translate(-354.376 -451.084)"/></g></g></g></svg>