<svg xmlns="http://www.w3.org/2000/svg" xmlns:xlink="http://www.w3.org/1999/xlink" width="31" height="32" viewBox="0 0 31 32"><defs><style>.a{fill:none;stroke:#707070;stroke-width:0.1px;}.b{clip-path:url(#a);}.c,.g{fill:#ebf9ff;}.c,.f,.g,.h{stroke:#006491;}.c{stroke-miterlimit:10;stroke-width:0.6px;}.d,.h{fill:#ee7f00;}.e,.i{fill:#083863;}.f{fill:#006491;}.f,.g,.h{stroke-width:0.4px;}.i{stroke:#ebf9ff;stroke-width:0.2px;}</style><clipPath id="a"><rect class="a" width="31" height="32" transform="translate(90.803 549.831)"/></clipPath></defs><g transform="translate(-89 -549)"><g class="b" transform="translate(-1.803 -0.831)"><g transform="translate(91.95 546.306)"><path class="c" d="M10.231,35.035h0c-3.872,0-9.628-.143-9.685-.144a.584.584,0,0,1-.545-.6V32.414c0-.038,0-.076,0-.114a6.535,6.535,0,0,1,1.885-4.581,6.287,6.287,0,0,1,4.5-1.893h3.7l0-.4H11.21v.67l2.315,2.475,2.543-2.474v-.67h1.12v.4l3.774,0a6.7,6.7,0,0,1,4.7,1.924,6.481,6.481,0,0,1,1.985,4.665V34.32a.566.566,0,0,1-.561.571H13.623A15.242,15.242,0,0,1,10.231,35.035ZM14.427.043H12.609c.3-.029.6-.043.893-.043h.065c.286,0,.575.014.861.041Z"/><g transform="translate(5.074 4.834)"><g transform="translate(1.999 0)"><path class="d" d="M253.507,432.456H252.9a.425.425,0,0,1-.455-.455.455.455,0,0,1,.455-.455h.607a.455.455,0,1,1,0,.911Z" transform="translate(-244.336 -406.78)"/><path class="d" d="M253.507,463.8H252.9a.425.425,0,0,1-.455-.455.455.455,0,0,1,.455-.455h.607a.455.455,0,1,1,0,.911Z" transform="translate(-244.336 -436.305)"/><path class="e" d="M114.361,9.415a7.684,7.684,0,0,1-1.062-.091.459.459,0,1,1,.121-.911h0a8.121,8.121,0,0,0,7.285-2.945.455.455,0,0,1,.637-.03.425.425,0,0,1,.03.638A9.2,9.2,0,0,1,114.361,9.415Z" transform="translate(-112.9 -5.323)"/></g><g transform="translate(0 0.146)"><g transform="translate(0 0)"><g transform="translate(14.753 2.321)"><path class="f" d="M351.143,91.952a3.126,3.126,0,0,1-.395,2.368,3.278,3.278,0,0,1-4.462,1.093h-.3V95.2h.334l4.736-3.218Z" transform="translate(-345.194 -89.386)"/><path class="f" d="M349.668,61.935h-.091l-4.736,3.248h-.334V64.151a6.013,6.013,0,0,0-.091-1.062h.121l3.916-3.005A3.1,3.1,0,0,1,349.668,61.935Z" transform="translate(-343.718 -59.368)"/><path class="f" d="M337.134,48.469l-3.916,3.005H333.1a6.436,6.436,0,0,0-.7-2.125,3.248,3.248,0,0,1,4.461-1.093h0Z" transform="translate(-332.399 -47.785)"/></g><path class="g" d="M343.509,196.837a1.517,1.517,0,0,1,.425,1,1.427,1.427,0,0,1-1.427,1.427h-.182a8.467,8.467,0,0,0,.212-1.761h0v-1.062A1.4,1.4,0,0,1,343.509,196.837Z" transform="translate(-326.995 -185.483)"/><path class="g" d="M115.17,96.548v1h-.182a10.534,10.534,0,0,1-7.164,2.762,10.685,10.685,0,0,1-6.8-2.428h-.061a1.485,1.485,0,0,1-.03-.364V94.059s7.893,2.095,11.232-3.673a6.132,6.132,0,0,0,3.005,3.643v2.519Z" transform="translate(-99.628 -85.589)"/><path class="f" d="M114.4,30.423a6.434,6.434,0,0,1,.7,2.155,6.008,6.008,0,0,1,.091,1.062v1.336a6.132,6.132,0,0,1-3.005-3.643c-3.339,5.768-11.232,3.673-11.232,3.673V33.641a6.436,6.436,0,0,1,.152-1.336,9.541,9.541,0,0,0,10.776-4.614h.03A7.043,7.043,0,0,1,114.4,30.423Z" transform="translate(-99.649 -26.537)"/><path class="h" d="M115.5,214.205h.182a8.468,8.468,0,0,1-.212,1.761,7.012,7.012,0,0,1-1.882,3.248,7.376,7.376,0,0,1-2.52,1.639,7.529,7.529,0,0,1-2.489.455,7.741,7.741,0,0,1-2.246-.364,7.194,7.194,0,0,1-4.644-4.918h0a6.071,6.071,0,0,1-.212-1.487h.061a10.686,10.686,0,0,0,6.8,2.428A10.533,10.533,0,0,0,115.5,214.205Z" transform="translate(-100.141 -202.214)"/><path class="f" d="M114.374,8.957h-.03a9.541,9.541,0,0,1-10.776,4.614,6.86,6.86,0,0,1,1.943-3.7,7.1,7.1,0,0,1,5.039-2.034A6.982,6.982,0,0,1,114.374,8.957Z" transform="translate(-102.11 -7.833)"/><g transform="translate(0 11.019)"><path class="g" d="M189.373,330.443v.061l-2.52,2.428-2.307-2.428v-1.791a7.741,7.741,0,0,0,2.246.364,7.528,7.528,0,0,0,2.489-.455l.061.152Z" transform="translate(-178.384 -321.003)"/><path class="g" d="M80.036,200.28h-.121a1.427,1.427,0,0,1-1.427-1.4,1.457,1.457,0,0,1,.425-1.032,1.487,1.487,0,0,1,.88-.364v.941a1.488,1.488,0,0,0,.03.364A6.077,6.077,0,0,0,80.036,200.28Z" transform="translate(-78.488 -197.487)"/></g></g></g></g><g transform="translate(8.972 15.079)"><g transform="translate(0 0)"><path class="i" d="M410.849,344.491a1.421,1.421,0,0,1-1.01-.415,1.375,1.375,0,0,1-.415-1.009v-.259a.389.389,0,0,1,.777,0v.259a.623.623,0,0,0,.181.466.749.749,0,0,0,.466.18.647.647,0,0,0,.648-.647v-.259a.389.389,0,0,1,.777,0v.259A1.424,1.424,0,0,1,410.849,344.491Z" transform="translate(-404.053 -342.419)"/><path class="i" d="M410.849,344.491a1.421,1.421,0,0,1-1.01-.415,1.375,1.375,0,0,1-.415-1.009v-.259a.389.389,0,0,1,.777,0v.259a.623.623,0,0,0,.181.466.749.749,0,0,0,.466.18.647.647,0,0,0,.648-.647v-.259a.389.389,0,0,1,.777,0v.259A1.424,1.424,0,0,1,410.849,344.491Z" transform="translate(-409.424 -342.419)"/></g></g></g></g></g></svg>