<svg xmlns="http://www.w3.org/2000/svg" width="72.001" height="72.001" viewBox="0 0 72.001 72.001"><defs><style>.a{fill:#fff;}.b{fill:#f36a10;}.c{fill:#6095cf;}.d{fill:none;stroke:#5c93d5;stroke-miterlimit:10;stroke-width:12px;}.e,.f{stroke:none;}.f{fill:#e7e8e8;}</style></defs><g transform="translate(-40 -174)"><g transform="translate(21 -507)"><g class="a" transform="translate(19 681)"><path class="e" d="M 66.46244049072266 71.7509765625 L 5.538538455963135 71.7509765625 C 2.622428178787231 71.7509765625 0.2499982863664627 69.37854766845703 0.2499982863664627 66.46244049072266 L 0.2499982863664627 5.538538455963135 C 0.2499982863664627 2.622428178787231 2.622428178787231 0.2499982863664627 5.538538455963135 0.2499982863664627 L 66.46244049072266 0.2499982863664627 C 69.37854766845703 0.2499982863664627 71.7509765625 2.622428178787231 71.7509765625 5.538538455963135 L 71.7509765625 66.46244049072266 C 71.7509765625 69.37854766845703 69.37854766845703 71.7509765625 66.46244049072266 71.7509765625 Z"/><path class="f" d="M 5.538536071777344 0.5 C 2.760276794433594 0.5 0.5 2.760276794433594 0.5 5.538536071777344 L 0.5 66.46244049072266 C 0.5 69.24069976806641 2.760276794433594 71.5009765625 5.538536071777344 71.5009765625 L 66.46244049072266 71.5009765625 C 69.24069976806641 71.5009765625 71.5009765625 69.24069976806641 71.5009765625 66.46244049072266 L 71.5009765625 5.538536071777344 C 71.5009765625 2.760276794433594 69.24069976806641 0.5 66.46244049072266 0.5 L 5.538536071777344 0.5 M 5.538536071777344 0 L 66.46244049072266 0 C 69.52128601074219 0 72.0009765625 2.479690551757812 72.0009765625 5.538536071777344 L 72.0009765625 66.46244049072266 C 72.0009765625 69.52128601074219 69.52128601074219 72.0009765625 66.46244049072266 72.0009765625 L 5.538536071777344 72.0009765625 C 2.479690551757812 72.0009765625 0 69.52128601074219 0 66.46244049072266 L 0 5.538536071777344 C 0 2.479690551757812 2.479690551757812 0 5.538536071777344 0 Z"/></g></g><g transform="translate(-180.373 -67.263)"><path class="b" d="M262.183,406.4q-.33-.553-.655-1.109a35.735,35.735,0,0,0-3.826-5.648,7.449,7.449,0,0,0-3.622-2.34,15.261,15.261,0,0,0-3.949-.483c-1.295-.025-2.624-.02-3.8-.015a7.5,7.5,0,0,0-1.726.4c-.158.046-.345.1-.527.153a1.2,1.2,0,0,0-.095-.86,1.27,1.27,0,0,0-.968-.644c-.287-.049-.594-.12-1-.229a1.283,1.283,0,0,1-.888-.7,1.071,1.071,0,0,1,.108-.954l.246-.423c.247-.424.434-.746.6-1.026.378-.652.628-1.083,1.214-2.069l-1.453-.863c-.59.993-.842,1.427-1.223,2.084l-.594,1.023-.246.423a2.72,2.72,0,0,0-.211,2.445,2.952,2.952,0,0,0,2.009,1.69c.246.067.462.121.665.167-.039.1-.079.2-.123.292a1.7,1.7,0,0,0,0,1.521,1.589,1.589,0,0,0,.915,2.2l.045.023c0,.016-.007.035-.011.055-.024.107-.344,1.4-.372,1.509l1.639.411c0-.013.359-1.444.384-1.559a1.546,1.546,0,0,0-.916-1.945c-.049-.025-.087-.046-.117-.064.012-.032.028-.072.05-.121a1.326,1.326,0,0,0,.121-.593c.316-.066.713-.181,1.225-.332a11.117,11.117,0,0,1,1.255-.327c1.164,0,2.483-.01,3.758.015a13.749,13.749,0,0,1,3.516.418,5.809,5.809,0,0,1,2.818,1.831,34.467,34.467,0,0,1,3.638,5.387c.22.374.439.747.661,1.119.235.393,1.4,2.46,1.415,2.481l1.471-.832C263.57,408.829,262.428,406.809,262.183,406.4Z" transform="translate(0 -113.688)"/><g transform="translate(246.813 290.735)"><path class="c" d="M300.328,501.664c-.247-.571-1.124-2.373-1.479-2.955a2.98,2.98,0,0,0-2.119-1.493c-.561-.1-1.145-.173-1.71-.247-.361-.047-.718-.094-1.073-.145l-.237-.034c-.086-.012-.509-.063-.848-.1-.3-.036-.585-.07-.661-.08l.228-1.675c.073.01.343.042.634.077.473.056.791.095.889.109l.238.034c.348.051.7.1,1.044.141.587.077,1.188.155,1.784.258a4.7,4.7,0,0,1,3.275,2.279c.4.659,1.31,2.525,1.586,3.163Z" transform="translate(-292.201 -494.931)"/></g><g transform="translate(241.823 257.263)"><path class="c" d="M286.036,296.423a59.367,59.367,0,0,1-3.576-6.5,8.026,8.026,0,0,1-.011-6.673,37.951,37.951,0,0,1,1.774-3.515,15.612,15.612,0,0,0,2.333-9.261,11.715,11.715,0,0,0-1.741-5.314c-3.321-5.22-10.145-7.219-15.972-5.6a15.184,15.184,0,0,0-9.5,8.132,8.464,8.464,0,0,0-.817,4.807l-1.677.213a10.127,10.127,0,0,1,.971-5.753,17.045,17.045,0,0,1,11.68-9.306,16.091,16.091,0,0,1,16.2,5.82q.279.384.534.785a13.386,13.386,0,0,1,2,6.071,17.239,17.239,0,0,1-2.548,10.247A36.283,36.283,0,0,0,284,283.932a6.417,6.417,0,0,0,.02,5.334,58.156,58.156,0,0,0,3.463,6.277Zm-15.041-37.356h0Z" transform="translate(-256.771 -257.263)"/></g><g transform="translate(258.003 272.596)"><path class="b" d="M374.708,377.663a3.051,3.051,0,0,1-1.958-.72,3.009,3.009,0,0,1-1.1-2.333l1.69.014a1.325,1.325,0,0,0,.49,1.024,1.345,1.345,0,0,0,1.112.3,1.541,1.541,0,0,0,1.216-1.1,5.45,5.45,0,0,1,1.237-1.869,5.948,5.948,0,0,0,.96-1.18,2.631,2.631,0,0,0-2.25-3.976h-.028a2.47,2.47,0,0,0-2.239,1.4l-1.551-.672a4.148,4.148,0,0,1,3.79-2.418h.047a4.322,4.322,0,0,1,3.7,6.51,7.49,7.49,0,0,1-1.227,1.529,3.8,3.8,0,0,0-.864,1.3,3.209,3.209,0,0,1-2.475,2.136A2.982,2.982,0,0,1,374.708,377.663Z" transform="translate(-371.654 -366.137)"/></g><g transform="translate(258.846 281.076)"><path class="d" d="M377.642,426.346" transform="translate(-377.642 -426.346)"/></g></g></g></svg>