<svg xmlns="http://www.w3.org/2000/svg" width="27" height="27" viewBox="0 0 27 27"><defs><style>.a,.b,.c{fill:#fff;}.a{opacity:0.2;}.c{stroke:#fff;stroke-width:1.2px;}.d{stroke:none;}.e{fill:none;}</style></defs><g transform="translate(-24 -752)"><g transform="translate(24 752)"><circle class="a" cx="13.5" cy="13.5" r="13.5"/></g><g transform="translate(12.636 427.824)"><g transform="translate(17.764 330.575)"><path class="b" d="M12.329,1.106H11.057V.442a.442.442,0,1,0-.885,0v.663H3.981V.442a.442.442,0,0,0-.885,0v.663H1.824A1.827,1.827,0,0,0,0,2.93v9.4a1.827,1.827,0,0,0,1.824,1.824h10.5a1.827,1.827,0,0,0,1.824-1.824V2.93A1.827,1.827,0,0,0,12.329,1.106Zm-10.5.885H3.1v.442a.442.442,0,0,0,.885,0V1.99h6.192v.442a.442.442,0,1,0,.885,0V1.99h1.272a.941.941,0,0,1,.94.94v1.05H.885V2.93A.941.941,0,0,1,1.824,1.99Zm10.5,11.278H1.824a.941.941,0,0,1-.94-.94V4.865H13.269v7.464A.941.941,0,0,1,12.329,13.269Z" transform="translate(0 0)"/></g><g class="c" transform="translate(20.364 337.364)"><circle class="d" cx="1" cy="1" r="1"/><circle class="e" cx="1" cy="1" r="0.4"/></g><g class="c" transform="translate(20.364 340.364)"><circle class="d" cx="1" cy="1" r="1"/><circle class="e" cx="1" cy="1" r="0.4"/></g><g class="c" transform="translate(27.364 337.364)"><circle class="d" cx="1" cy="1" r="1"/><circle class="e" cx="1" cy="1" r="0.4"/></g><g class="c" transform="translate(27.364 340.364)"><circle class="d" cx="1" cy="1" r="1"/><circle class="e" cx="1" cy="1" r="0.4"/></g><g class="c" transform="translate(23.864 337.364)"><circle class="d" cx="1" cy="1" r="1"/><circle class="e" cx="1" cy="1" r="0.4"/></g><g class="c" transform="translate(23.864 340.364)"><circle class="d" cx="1" cy="1" r="1"/><circle class="e" cx="1" cy="1" r="0.4"/></g></g></g></svg>