<svg xmlns="http://www.w3.org/2000/svg" width="27" height="27" viewBox="0 0 27 27"><defs><style>.a,.b{fill:#fff;}.a{opacity:0.1;}</style></defs><circle class="a" cx="13.5" cy="13.5" r="13.5"/><g transform="translate(7.087 7.087)"><g transform="translate(9.637 8.048)"><path class="b" d="M364.6,303.432l-1.7-1.7a1.231,1.231,0,0,0-1.7,0l-.283.283,3.4,3.4.283-.283A1.2,1.2,0,0,0,364.6,303.432Z" transform="translate(-360.917 -301.393)"/></g><g transform="translate(0 1.213)"><path class="b" d="M9.055,53.452a.9.9,0,0,1-1.194-.061L4.5,50.028a.9.9,0,0,1-.061-1.195L1.049,45.443a4.325,4.325,0,0,0,.208,5.873l5.317,5.319a4.3,4.3,0,0,0,5.873.208Z" transform="translate(0 -45.443)"/></g><g transform="translate(1.592 0)"><path class="b" d="M63.294,2.039l-1.7-1.7a1.231,1.231,0,0,0-1.7,0l-.283.283,3.4,3.4.283-.283A1.2,1.2,0,0,0,63.294,2.039Z" transform="translate(-59.612 0)"/></g></g></svg>