<svg xmlns="http://www.w3.org/2000/svg" width="20" height="20" viewBox="0 0 20 20"><defs><style>.a{fill:#ff8300;}.b{fill:#00263e;}</style></defs><g transform="translate(-222 -7779)"><rect class="a" width="20" height="20" rx="4" transform="translate(222 7779)"/><g transform="translate(226.423 7783.424)"><path class="b" d="M15.695,15.208h0v-4.09c0-2-.431-3.543-2.77-3.543a2.429,2.429,0,0,0-2.187,1.2h-.033V7.761H8.489v7.446H10.8V11.52c0-.971.184-1.91,1.386-1.91,1.185,0,1.2,1.108,1.2,1.972v3.625Z" transform="translate(-4.544 -4.054)"/><path class="b" d="M.4,7.977H2.708v7.446H.4Z" transform="translate(-0.212 -4.27)"/><path class="b" d="M1.339,0A1.346,1.346,0,1,0,2.679,1.339,1.34,1.34,0,0,0,1.339,0Z"/></g></g></svg>