<svg xmlns="http://www.w3.org/2000/svg" width="20" height="20" viewBox="0 0 20 20"><defs><style>.a,.b{fill:#ff8300;}.c,.e{fill:#00263e;}.d,.e{stroke:none;}</style></defs><g transform="translate(-97 -7779)"><rect class="a" width="20" height="20" rx="4" transform="translate(97 7779)"/><g class="b" transform="translate(102 7784)"><path class="d" d="M 5 9.25 C 2.656539916992188 9.25 0.75 7.343460083007812 0.75 5 C 0.75 2.656539916992188 2.656539916992188 0.75 5 0.75 C 7.343460083007812 0.75 9.25 2.656539916992188 9.25 5 C 9.25 7.343460083007812 7.343460083007812 9.25 5 9.25 Z"/><path class="e" d="M 5 1.5 C 3.070089817047119 1.5 1.5 3.070089817047119 1.5 5 C 1.5 6.929909706115723 3.070089817047119 8.5 5 8.5 C 6.929909706115723 8.5 8.5 6.929909706115723 8.5 5 C 8.5 3.070089817047119 6.929909706115723 1.5 5 1.5 M 5 0 C 7.761420249938965 0 10 2.238580226898193 10 5 C 10 7.761420249938965 7.761420249938965 10 5 10 C 2.238580226898193 10 0 7.761420249938965 0 5 C 0 2.238580226898193 2.238580226898193 0 5 0 Z"/></g><circle class="c" cx="1" cy="1" r="1" transform="translate(112 7782)"/></g></svg>