<svg xmlns="http://www.w3.org/2000/svg" width="72.001" height="72.001" viewBox="0 0 72.001 72.001"><defs><style>.a{fill:#fff;}.b{fill:#3d7cc9;}.b,.c,.d,.e{stroke:#fff;stroke-width:0.4px;}.c{fill:#ff8300;}.d{fill:#126abf;}.e{fill:#ff6a00;}.f,.g{stroke:none;}.g{fill:#e7e8e8;}</style></defs><g transform="translate(-175 -174)"><g transform="translate(156 -507)"><g class="a" transform="translate(19 681)"><path class="f" d="M 66.46244049072266 71.7509765625 L 5.538538455963135 71.7509765625 C 2.622428178787231 71.7509765625 0.2499982863664627 69.37854766845703 0.2499982863664627 66.46244049072266 L 0.2499982863664627 5.538538455963135 C 0.2499982863664627 2.622428178787231 2.622428178787231 0.2499982863664627 5.538538455963135 0.2499982863664627 L 66.46244049072266 0.2499982863664627 C 69.37854766845703 0.2499982863664627 71.7509765625 2.622428178787231 71.7509765625 5.538538455963135 L 71.7509765625 66.46244049072266 C 71.7509765625 69.37854766845703 69.37854766845703 71.7509765625 66.46244049072266 71.7509765625 Z"/><path class="g" d="M 5.538536071777344 0.5 C 2.760276794433594 0.5 0.5 2.760276794433594 0.5 5.538536071777344 L 0.5 66.46244049072266 C 0.5 69.24069976806641 2.760276794433594 71.5009765625 5.538536071777344 71.5009765625 L 66.46244049072266 71.5009765625 C 69.24069976806641 71.5009765625 71.5009765625 69.24069976806641 71.5009765625 66.46244049072266 L 71.5009765625 5.538536071777344 C 71.5009765625 2.760276794433594 69.24069976806641 0.5 66.46244049072266 0.5 L 5.538536071777344 0.5 M 5.538536071777344 0 L 66.46244049072266 0 C 69.52128601074219 0 72.0009765625 2.479690551757812 72.0009765625 5.538536071777344 L 72.0009765625 66.46244049072266 C 72.0009765625 69.52128601074219 69.52128601074219 72.0009765625 66.46244049072266 72.0009765625 L 5.538536071777344 72.0009765625 C 2.479690551757812 72.0009765625 0 69.52128601074219 0 66.46244049072266 L 0 5.538536071777344 C 0 2.479690551757812 2.479690551757812 0 5.538536071777344 0 Z"/></g></g><g transform="translate(-34.89 -92.426)"><g transform="translate(227.804 300.645)"><path class="b" d="M254.9,395.376a3.429,3.429,0,1,1,3.429-3.429A3.433,3.433,0,0,1,254.9,395.376Zm0-4.858a1.429,1.429,0,1,0,1.429,1.429A1.43,1.43,0,0,0,254.9,390.518Z" transform="translate(-251.466 -388.518)"/></g><g transform="translate(239.8 288.159)"><path class="c" d="M332.713,347.5h-2v-16.16a12.86,12.86,0,0,1,1.658-6.433,9.673,9.673,0,0,0,1.252-5.205,4.091,4.091,0,0,0-5.73-3.749c-.064.028-.131.061-.192.093a4.216,4.216,0,0,0-1.006.71,4.082,4.082,0,0,0-1.256,2.951,9.686,9.686,0,0,0,1.249,5.2,12.9,12.9,0,0,1,1.66,6.435V347.5h-2v-16.16a10.928,10.928,0,0,0-1.446-5.533,11.628,11.628,0,0,1-1.464-6.1,6.071,6.071,0,0,1,1.872-4.39,6.2,6.2,0,0,1,1.473-1.044c.1-.051.2-.1.3-.147a6.092,6.092,0,0,1,8.535,5.58,11.6,11.6,0,0,1-1.465,6.1,10.847,10.847,0,0,0-1.444,5.533Z" transform="translate(-323.439 -313.614)"/></g><g transform="translate(256.353 300.489)"><path class="b" d="M426.412,394.914a3.663,3.663,0,1,1,3.663-3.663A3.667,3.667,0,0,1,426.412,394.914Zm0-5.326a1.663,1.663,0,1,0,1.663,1.663A1.665,1.665,0,0,0,426.412,389.588Z" transform="translate(-422.749 -387.588)"/></g><g transform="translate(250.746 287.899)"><path class="d" d="M389.106,312.053c.2.161.444.372.793.693A8.063,8.063,0,0,0,389.106,312.053Z" transform="translate(-389.106 -312.053)"/></g><g transform="translate(223.071 283.068)"><path class="b" d="M225.279,303.1a13.173,13.173,0,0,1-2.208-7.4,12.474,12.474,0,0,1,12.274-12.638,12.034,12.034,0,0,1,8.036,3.108l-1.336,1.489a10.037,10.037,0,0,0-6.7-2.6,10.473,10.473,0,0,0-10.274,10.638,11.18,11.18,0,0,0,1.866,6.278Z" transform="translate(-223.071 -283.068)"/></g><g transform="translate(248.413 283.068)"><path class="b" d="M393.225,303.078l-1.662-1.113a11.186,11.186,0,0,0,1.853-6.259,10.473,10.473,0,0,0-10.274-10.638,10.032,10.032,0,0,0-6.695,2.592l-1.335-1.489a12.03,12.03,0,0,1,8.03-3.1,12.474,12.474,0,0,1,12.275,12.638A13.177,13.177,0,0,1,393.225,303.078Z" transform="translate(-375.112 -283.068)"/></g><g transform="translate(265.695 302.521)"><path class="e" d="M478.794,399.778l0,0,0,0Z" transform="translate(-478.794 -399.778)"/></g><g transform="translate(236.891 285.25)"><path class="b" d="M308.908,332.958l0-2.555c0-1.512,0-3.527-.005-5.543l-.006-8.062a8.759,8.759,0,0,0-.057-1.077,8.556,8.556,0,0,0-1.078-3.141l-.012-.023a14.507,14.507,0,0,1-1.763-7.4,8.971,8.971,0,0,1,2.9-6.614l1.008-.8a9.4,9.4,0,0,1,1.513-.831l.574-.25.021.018a9.178,9.178,0,0,1,.99-.29l.043-.01c.056-.013.112-.026.168-.038s.14-.027.211-.04l.021,0c.106-.019.211-.036.318-.051a8.765,8.765,0,0,1,1.647-.08l.042,0,.112.007.063.005.023,0a9.46,9.46,0,0,1,2.922.72l.1.047c.252.14.455.249.626.342a9.149,9.149,0,0,1,.855.5c.113.079.21.151.306.224.228.179.474.394.862.75l.03.028a8.935,8.935,0,0,1,2.648,6.366,14.506,14.506,0,0,1-1.762,7.4l-.009.018a8.008,8.008,0,0,0-1.138,4.222v16.161h-2V316.8a9.867,9.867,0,0,1,1.352-5.123l.006-.013a12.459,12.459,0,0,0,1.551-6.5,6.948,6.948,0,0,0-2.046-4.936c-.335-.307-.551-.5-.72-.63-.064-.049-.141-.105-.218-.16-.163-.111-.352-.212-.663-.38-.167-.09-.362-.2-.6-.327a7.454,7.454,0,0,0-2.251-.548l-.186-.012c-.1,0-.206-.008-.314-.008a6.742,6.742,0,0,0-.95.07c-.084.012-.166.025-.246.04l-.02,0-.16.03-.119.027-.046.01a7.035,7.035,0,0,0-1.233.409l-.256.113a7.367,7.367,0,0,0-.815.456l-.121.082a6.967,6.967,0,0,0-3.036,5.76,12.459,12.459,0,0,0,1.551,6.5l.009.018a10.416,10.416,0,0,1,1.277,3.8,10.668,10.668,0,0,1,.072,1.318c0,5.44.011,15.867.015,16.161Z" transform="translate(-305.984 -296.159)"/></g></g></g></svg>