<svg xmlns="http://www.w3.org/2000/svg" width="33.74" height="29.413" viewBox="0 0 33.74 29.413"><defs><style>.a{fill:#ebf9ff;}.b{fill:#ee7f00;}.c,.d{fill:none;}.c{stroke:#ee7f00;stroke-width:0.7px;}.d{stroke:#006491;stroke-width:0.4px;}.e,.f{stroke:none;}.f{fill:#006491;}</style></defs><g transform="translate(2.202 0)"><g class="a" transform="translate(14.3 5.091)"><path class="e" d="M 14.48109531402588 24.07091522216797 L 0.1999956518411636 24.07091522216797 L 0.1999956518411636 2.427096128463745 C 0.1999956518411636 1.199066042900085 1.42745566368103 0.1999960839748383 2.93621563911438 0.1999960839748383 L 11.74487590789795 0.1999960839748383 C 13.25363540649414 0.1999960839748383 14.48109531402588 1.199066042900085 14.48109531402588 2.427096128463745 L 14.48109531402588 24.07091522216797 Z"/><path class="f" d="M 2.936215400695801 0.3999958038330078 C 1.537735939025879 0.3999958038330078 0.3999958038330078 1.309345245361328 0.3999958038330078 2.427095413208008 L 0.3999958038330078 23.87091636657715 L 14.28109550476074 23.87091636657715 L 14.28109550476074 2.427095413208008 C 14.28109550476074 1.309345245361328 13.14335536956787 0.3999958038330078 11.74487590789795 0.3999958038330078 L 2.936215400695801 0.3999958038330078 M 2.936215400695801 -3.814697265625e-06 L 11.74487590789795 -3.814697265625e-06 C 13.36649513244629 -3.814697265625e-06 14.68109607696533 1.086647033691406 14.68109607696533 2.427095413208008 L 14.68109607696533 24.27091598510742 L -4.76837158203125e-06 24.27091598510742 L -4.76837158203125e-06 2.427095413208008 C -4.76837158203125e-06 1.086647033691406 1.31458568572998 -3.814697265625e-06 2.936215400695801 -3.814697265625e-06 Z"/></g><g transform="translate(15.768 10.277)"><rect class="b" width="4.404" height="4.404" rx="0.8"/><rect class="b" width="4.404" height="4.404" rx="0.8" transform="translate(7.341)"/><g transform="translate(0 5.872)"><rect class="b" width="4.404" height="4.404" rx="0.8"/><rect class="b" width="4.404" height="4.404" rx="0.8" transform="translate(7.341)"/></g><rect class="b" width="5.21" height="5.21" rx="0.8" transform="translate(3.182 12.916)"/></g><g class="a"><path class="e" d="M 14.48109531402588 29.16193962097168 L 0.1999956518411636 29.16193962097168 L 0.1999956518411636 2.9361891746521 C 0.1999956518411636 1.427449226379395 1.42745566368103 0.1999992430210114 2.93621563911438 0.1999992430210114 L 11.74487590789795 0.1999992430210114 C 13.25363540649414 0.1999992430210114 14.48109531402588 1.427449226379395 14.48109531402588 2.9361891746521 L 14.48109531402588 29.16193962097168 Z"/><path class="f" d="M 2.936215400695801 0.3999996185302734 C 1.537735939025879 0.3999996185302734 0.3999958038330078 1.537729263305664 0.3999958038330078 2.936189651489258 L 0.3999958038330078 28.96193885803223 L 14.28109550476074 28.96193885803223 L 14.28109550476074 2.936189651489258 C 14.28109550476074 1.537729263305664 13.14335536956787 0.3999996185302734 11.74487590789795 0.3999996185302734 L 2.936215400695801 0.3999996185302734 M 2.936215400695801 0 L 11.74487590789795 0 C 13.36649513244629 0 14.68109607696533 1.314579010009766 14.68109607696533 2.936189651489258 L 14.68109607696533 29.3619384765625 L -4.76837158203125e-06 29.3619384765625 L -4.76837158203125e-06 2.936189651489258 C -4.76837158203125e-06 1.314579010009766 1.31458568572998 0 2.936215400695801 0 Z"/></g><g transform="translate(1.468 10.277)"><rect class="b" width="4.404" height="4.404" rx="0.8"/><rect class="b" width="4.404" height="4.404" rx="0.8" transform="translate(7.341)"/><rect class="b" width="4.404" height="4.404" rx="0.8" transform="translate(0 5.872)"/><rect class="b" width="4.404" height="4.404" rx="0.8" transform="translate(7.341 5.872)"/><rect class="b" width="4.404" height="4.404" rx="0.8" transform="translate(0 11.745)"/><rect class="b" width="4.404" height="4.404" rx="0.8" transform="translate(7.341 11.745)"/></g><g transform="translate(4.566 2.363)"><line class="c" y2="5.55" transform="translate(2.775)"/><line class="c" y2="5.55" transform="translate(5.55 2.775) rotate(90)"/></g></g><line class="d" x2="33.74" transform="translate(0 29.213)"/></svg>