<svg xmlns="http://www.w3.org/2000/svg" width="72.001" height="72.001" viewBox="0 0 72.001 72.001"><defs><style>.a{fill:#fff;}.b,.c{fill:none;stroke:#3d7cc9;stroke-miterlimit:10;stroke-width:1.5px;}.b{stroke-linecap:round;}.d{fill:#ff8300;stroke:rgba(0,0,0,0);}.e,.f{stroke:none;}.f{fill:#e7e8e8;}</style></defs><g transform="translate(-175 -174)"><g transform="translate(156 -507)"><g class="a" transform="translate(19 681)"><path class="e" d="M 66.46244049072266 71.7509765625 L 5.538538455963135 71.7509765625 C 2.622428178787231 71.7509765625 0.2499982863664627 69.37854766845703 0.2499982863664627 66.46244049072266 L 0.2499982863664627 5.538538455963135 C 0.2499982863664627 2.622428178787231 2.622428178787231 0.2499982863664627 5.538538455963135 0.2499982863664627 L 66.46244049072266 0.2499982863664627 C 69.37854766845703 0.2499982863664627 71.7509765625 2.622428178787231 71.7509765625 5.538538455963135 L 71.7509765625 66.46244049072266 C 71.7509765625 69.37854766845703 69.37854766845703 71.7509765625 66.46244049072266 71.7509765625 Z"/><path class="f" d="M 5.538536071777344 0.5 C 2.760276794433594 0.5 0.5 2.760276794433594 0.5 5.538536071777344 L 0.5 66.46244049072266 C 0.5 69.24069976806641 2.760276794433594 71.5009765625 5.538536071777344 71.5009765625 L 66.46244049072266 71.5009765625 C 69.24069976806641 71.5009765625 71.5009765625 69.24069976806641 71.5009765625 66.46244049072266 L 71.5009765625 5.538536071777344 C 71.5009765625 2.760276794433594 69.24069976806641 0.5 66.46244049072266 0.5 L 5.538536071777344 0.5 M 5.538536071777344 0 L 66.46244049072266 0 C 69.52128601074219 0 72.0009765625 2.479690551757812 72.0009765625 5.538536071777344 L 72.0009765625 66.46244049072266 C 72.0009765625 69.52128601074219 69.52128601074219 72.0009765625 66.46244049072266 72.0009765625 L 5.538536071777344 72.0009765625 C 2.479690551757812 72.0009765625 0 69.52128601074219 0 66.46244049072266 L 0 5.538536071777344 C 0 2.479690551757812 2.479690551757812 0 5.538536071777344 0 Z"/></g></g><g transform="translate(52.521 4.27)"><g transform="translate(139.978 187.131)"><path class="b" d="M1129.14-551.673l.095-.093a5.44,5.44,0,0,1,3.6-1.685,5.44,5.44,0,0,1,3.607,1.685m12.162-4.116a1.419,1.419,0,0,1,2.435.525,7.735,7.735,0,0,1-2.7,8.241,6.78,6.78,0,0,1-3.639,1.317,11.565,11.565,0,0,1-9.009-3.184c-.161-.145-.313-.3-.468-.45a3.848,3.848,0,0,0-2.392-1.192,3.85,3.85,0,0,0-2.389,1.192c-.155.151-.307.3-.468.45a11.571,11.571,0,0,1-9.012,3.184,6.787,6.787,0,0,1-3.638-1.317,7.732,7.732,0,0,1-2.694-8.241,1.417,1.417,0,0,1,2.432-.525" transform="translate(-1114.322 556.368)"/><path class="c" d="M1129.64-550.6c1.218,1.455,1.322,3.371.237,4.28s-2.956.466-4.171-.988-1.323-3.371-.237-4.28,2.953-.467,4.171.988Z" transform="translate(-1121.781 553.276)"/><path class="b" d="M1149.262-519.684s2.295.4,2.809,5.411a8.919,8.919,0,0,0,.81,2.952,7.2,7.2,0,0,0,1.043,1.6s-.7,4.439.672,6.276l-.175.212a2.668,2.668,0,0,0-.489,2.476l1.746,5.674h1.93m8.35-24.6s-2.294.4-2.812,5.411a8.83,8.83,0,0,1-.808,2.952,7.171,7.171,0,0,1-1.045,1.6s.7,4.439-.669,6.276l.175.212a2.671,2.671,0,0,1,.486,2.476l-1.744,5.674h-1.933" transform="translate(-1139.092 532.216)"/><path class="c" d="M1212.97-550.6c-1.215,1.455-1.323,3.371-.235,4.28s2.953.466,4.171-.988,1.323-3.371.235-4.28-2.953-.467-4.171.988Z" transform="translate(-1183.793 553.276)"/><g transform="translate(5 4.114)"><path class="d" d="M1218.472-542.614a2.305,2.305,0,0,0-.486,1.209.677.677,0,0,0,.139.533.437.437,0,0,0,.28.076h0a2.106,2.106,0,0,0,1.473-.839,2.666,2.666,0,0,0,.439-.73,2.324,2.324,0,0,1-1.845-.248Z" transform="translate(-1193.282 542.614)"/><path class="d" d="M1133.067-542.614a2.315,2.315,0,0,1,.489,1.209.7.7,0,0,1-.139.533.442.442,0,0,1-.284.076h0a2.1,2.1,0,0,1-1.47-.839,2.682,2.682,0,0,1-.442-.73,2.323,2.323,0,0,0,1.845-.248Z" transform="translate(-1131.222 542.614)"/><path class="d" d="M1161.878-521.563a11.127,11.127,0,0,1,8.05-3.432l.08,0a8.2,8.2,0,0,1,.675-1.517,14.132,14.132,0,0,1-3.443-2.358c-.139-.127-.275-.261-.408-.4l-.092-.092a2.173,2.173,0,0,0-1.139-.688,2.16,2.16,0,0,0-1.136.687l-.086.085c-.136.136-.272.272-.414.4a14.2,14.2,0,0,1-3.443,2.359,11.1,11.1,0,0,1,1.292,4.495c.017.154.042.3.064.452Z" transform="translate(-1152.084 533.536)"/></g></g></g></g></svg>