<svg xmlns="http://www.w3.org/2000/svg" width="72.001" height="72.001" viewBox="0 0 72.001 72.001"><defs><style>.a{fill:#fff;}.b,.d{fill:#3d7cc9;}.b{stroke:#3d7cc9;stroke-width:0.7px;}.c{fill:#ff8300;}.e{fill:none;stroke:#ff8300;}.f,.g{stroke:none;}.g{fill:#e7e8e8;}</style></defs><g transform="translate(-685 -906)"><g transform="translate(510 732)"><g transform="translate(156 -507)"><g class="a" transform="translate(19 681)"><path class="f" d="M 66.46244049072266 71.7509765625 L 5.538538455963135 71.7509765625 C 2.622428178787231 71.7509765625 0.2499982863664627 69.37854766845703 0.2499982863664627 66.46244049072266 L 0.2499982863664627 5.538538455963135 C 0.2499982863664627 2.622428178787231 2.622428178787231 0.2499982863664627 5.538538455963135 0.2499982863664627 L 66.46244049072266 0.2499982863664627 C 69.37854766845703 0.2499982863664627 71.7509765625 2.622428178787231 71.7509765625 5.538538455963135 L 71.7509765625 66.46244049072266 C 71.7509765625 69.37854766845703 69.37854766845703 71.7509765625 66.46244049072266 71.7509765625 Z"/><path class="g" d="M 5.538536071777344 0.5 C 2.760276794433594 0.5 0.5 2.760276794433594 0.5 5.538536071777344 L 0.5 66.46244049072266 C 0.5 69.24069976806641 2.760276794433594 71.5009765625 5.538536071777344 71.5009765625 L 66.46244049072266 71.5009765625 C 69.24069976806641 71.5009765625 71.5009765625 69.24069976806641 71.5009765625 66.46244049072266 L 71.5009765625 5.538536071777344 C 71.5009765625 2.760276794433594 69.24069976806641 0.5 66.46244049072266 0.5 L 5.538536071777344 0.5 M 5.538536071777344 0 L 66.46244049072266 0 C 69.52128601074219 0 72.0009765625 2.479690551757812 72.0009765625 5.538536071777344 L 72.0009765625 66.46244049072266 C 72.0009765625 69.52128601074219 69.52128601074219 72.0009765625 66.46244049072266 72.0009765625 L 5.538536071777344 72.0009765625 C 2.479690551757812 72.0009765625 0 69.52128601074219 0 66.46244049072266 L 0 5.538536071777344 C 0 2.479690551757812 2.479690551757812 0 5.538536071777344 0 Z"/></g></g></g><g transform="translate(673.813 887)"><path class="b" d="M59.824,51.735a.484.484,0,0,0-.245.64,15.241,15.241,0,0,1,1.336,6.276A15.379,15.379,0,1,1,45.536,43.273a15.688,15.688,0,0,1,2.167.151.485.485,0,1,0,.136-.96,16.567,16.567,0,0,0-2.3-.161,16.335,16.335,0,1,0,14.929,9.676A.486.486,0,0,0,59.824,51.735Z"/><path class="c" d="M39.942,62.443A1.958,1.958,0,0,0,38.97,61.2a1.621,1.621,0,0,0-.448-.142,3.339,3.339,0,0,0-.913-2.409c-1.069-1.145-2.493-1.495-3.24-.8s-.5,2.142.572,3.288a3.524,3.524,0,0,0,1.7,1,2.673,2.673,0,0,0,.644.085A1.378,1.378,0,0,0,38,62.036c.006,0,.013,0,.019,0a.769.769,0,0,1,.525.034,1.045,1.045,0,0,1,.473.669c.474,1.5,1.088,2.2,2.053,2.328a.485.485,0,1,0,.13-.961C40.83,64.053,40.4,63.879,39.942,62.443Zm-2.423-1.221a2.168,2.168,0,0,1-1.869-.748c-.7-.751-.909-1.648-.619-1.917a.457.457,0,0,1,.321-.1,2.429,2.429,0,0,1,1.549.853A2.174,2.174,0,0,1,37.519,61.222Z" transform="translate(5 6)"/><path class="c" d="M51.975,67.132c-1.326.848-1.839,1.622-1.714,2.588a.486.486,0,0,0,.481.423c.02,0,.041,0,.062,0a.486.486,0,0,0,.419-.543c-.048-.372.007-.836,1.274-1.648a1.957,1.957,0,0,0,.952-1.263,1.589,1.589,0,0,0,.02-.467,2.623,2.623,0,0,0,.61-.2,3.513,3.513,0,0,0,1.479-1.315,3.8,3.8,0,0,0,.6-1.836,1.477,1.477,0,0,0-2.322-1.443,3.8,3.8,0,0,0-1.379,1.351,3.5,3.5,0,0,0-.526,1.908,1.818,1.818,0,0,0,.465,1.306.748.748,0,0,1,.1.516A1.058,1.058,0,0,1,51.975,67.132Zm1.306-3.841a2.855,2.855,0,0,1,1.011-1.007.539.539,0,0,1,.9.558,2.867,2.867,0,0,1-.456,1.353,2.174,2.174,0,0,1-1.689,1.1A2.165,2.165,0,0,1,53.281,63.291Z"/><path class="c" d="M46.251,54.372a3.5,3.5,0,0,0,.755-1.829,3.793,3.793,0,0,0-.261-1.914,1.476,1.476,0,0,0-2.719-.283,3.783,3.783,0,0,0-.65,1.819,2.836,2.836,0,0,0,1.35,2.915.764.764,0,0,1,.312.414,1.041,1.041,0,0,1-.195.8c-.821,1.343-.943,2.264-.408,3.078a.485.485,0,0,0,.81-.533c-.206-.313-.359-.755.425-2.039a1.954,1.954,0,0,0,.305-1.551,1.575,1.575,0,0,0-.187-.429A2.623,2.623,0,0,0,46.251,54.372ZM45,54.166a2.169,2.169,0,0,1-.662-1.9,2.865,2.865,0,0,1,.469-1.348.779.779,0,0,1,.541-.38l.03,0c.172.018.351.2.481.487a2.876,2.876,0,0,1,.181,1.417A2.175,2.175,0,0,1,45,54.166Z" transform="translate(-6 1)"/></g><g transform="translate(-4 6)"><path class="d" d="M70.6,28.1l-4.429-3.015a.49.49,0,0,0-.364-.076.482.482,0,0,0-.31.2l-1.228,1.842a.484.484,0,0,0,.128.673l.949.652-1.2,1.874L61.61,28.521a.487.487,0,0,0-.667.119l-1.486,2.044a.486.486,0,0,0,.121.683l.671.457L51.308,44.959a.486.486,0,0,0,.128.674l.992.675-1.021,1.5a.483.483,0,0,0,.128.673l.993.676L50.659,51.9a.485.485,0,0,0,.8.545L53.33,49.7l.993.676a.486.486,0,0,0,.273.084.458.458,0,0,0,.09-.009.487.487,0,0,0,.311-.2l1.021-1.5.992.676a.486.486,0,0,0,.273.084.45.45,0,0,0,.09-.009.482.482,0,0,0,.311-.2l1.175-1.726,7.765-11.409.455.31a.487.487,0,0,0,.667-.119l1.486-2.044a.485.485,0,0,0-.122-.683l-2.223-1.538,1.2-1.874.741.528a.486.486,0,0,0,.273.084.547.547,0,0,0,.09-.008.5.5,0,0,0,.311-.2l1.228-1.843A.484.484,0,0,0,70.6,28.1ZM54.468,49.306l-.993-.676h0l-.992-.675.749-1.1,1.435.977.551.375ZM65.183,36.558l-1.009-.686a.484.484,0,1,0-.545.8l1.008.687-.785,1.155-2.1-1.426a.485.485,0,1,0-.545.8l2.1,1.425-.884,1.3-.847-.577a.485.485,0,1,0-.546.8l.848.577-.786,1.155-1.934-1.317a.485.485,0,0,0-.546.8l1.934,1.316-.883,1.3-.687-.467a.484.484,0,1,0-.545.8l.686.467-.785,1.155-1.774-1.207a.485.485,0,0,0-.545.8l1.773,1.206-.63.925L52.383,45.1,61.05,32.369l4.773,3.249Zm2.972-2.409L67.233,35.4,62.1,31.914l-.909-.619h0l-.661-.45.922-1.256,4.307,2.931v0h0Zm-2.07-2.606L64.948,30.8l1.2-1.874,1.136.744Zm2.887-1.874-.962-.655h0L65.343,27.2l.683-1.041,3.628,2.47Z" transform="translate(673.813 887)"/><path class="e" d="M-6844.712,6880.363l2.373,1.645" transform="translate(7577 -5952)"/><path class="e" d="M-6847.362,6884.534l2.258,1.517" transform="translate(7577 -5952)"/><path class="e" d="M-6842.146,6876.166l2.588,1.793" transform="translate(7577 -5952)"/></g></g></svg>