<svg xmlns="http://www.w3.org/2000/svg" width="40.029" height="35.63" viewBox="0 0 40.029 35.63"><defs><style>.a{fill:#74a0da;opacity:0.2;}</style></defs><path class="a" d="M6.4-67.769a34.929,34.929,0,0,0,4.289-7.973,23.437,23.437,0,0,0,1.979-9.4,7.311,7.311,0,0,1-2.309.33,8.188,8.188,0,0,1-5.389-1.814,6.648,6.648,0,0,1-2.2-5.443,8.193,8.193,0,0,1,2.254-5.883,7.759,7.759,0,0,1,5.883-2.364,8.812,8.812,0,0,1,7.313,3.244,12.913,12.913,0,0,1,2.584,8.3,30.744,30.744,0,0,1-2.584,11.657A50.972,50.972,0,0,1,10.69-64.69Zm21.994,0a34.929,34.929,0,0,0,4.289-7.973,23.437,23.437,0,0,0,1.979-9.4,7.311,7.311,0,0,1-2.309.33,8.188,8.188,0,0,1-5.389-1.814,6.648,6.648,0,0,1-2.2-5.443,8.193,8.193,0,0,1,2.254-5.883A7.759,7.759,0,0,1,32.9-100.32a8.812,8.812,0,0,1,7.313,3.244,12.913,12.913,0,0,1,2.584,8.3,30.744,30.744,0,0,1-2.584,11.657A50.972,50.972,0,0,1,32.684-64.69Z" transform="translate(42.801 -64.69) rotate(180)"/></svg>