<svg xmlns="http://www.w3.org/2000/svg" xmlns:xlink="http://www.w3.org/1999/xlink" width="28" height="35" viewBox="0 0 28 35"><defs><style>.a{fill:none;stroke:#707070;}.b{clip-path:url(#a);}.c{fill:#ee7f00;}.d{fill:#ebf9ff;stroke:#006491;stroke-width:0.4px;}</style><clipPath id="a"><rect class="a" width="28" height="35" transform="translate(89 649)"/></clipPath></defs><g class="b" transform="translate(-89 -649)"><g transform="matrix(0.875, 0.485, -0.485, 0.875, 98.96, 646.435)"><path class="c" d="M1.873,4.136A1.42,1.42,0,0,0,3.04,2.5L2.821,1.187a1.42,1.42,0,0,0-2.8.467L.239,2.969A1.42,1.42,0,0,0,1.873,4.136Z" transform="translate(8.595 22.379)"/><path class="c" d="M2.729,3.753a1.42,1.42,0,0,0,.543-1.933L2.659.725A1.42,1.42,0,1,0,.182,2.115L.8,3.209A1.42,1.42,0,0,0,2.729,3.753Z" transform="translate(14.941 18.817)"/><path class="c" d="M3.5,3.222a1.42,1.42,0,0,0-.145-2L2.349.346A1.42,1.42,0,1,0,.491,2.494L1.5,3.366A1.42,1.42,0,0,0,3.5,3.222Z" transform="translate(21.288 15.255)"/><path class="c" d="M2.826,1.215a1.42,1.42,0,0,0-2.811.41l.2,1.364a1.42,1.42,0,0,0,2.811-.41Z" transform="translate(9.198 30.778)"/><path class="c" d="M2.737.888A1.42,1.42,0,0,0,.1,1.953l.486,1.2A1.42,1.42,0,0,0,3.223,2.091Z" transform="translate(15.518 27.23)"/><path class="c" d="M2.56.574A1.42,1.42,0,0,0,.28,2.267l.773,1.042a1.42,1.42,0,0,0,2.28-1.693Z" transform="translate(21.839 23.684)"/><path class="c" d="M3.388,1.208,2.327.327A1.42,1.42,0,1,0,.513,2.513l1.061.88A1.42,1.42,0,0,0,3.388,1.208Z" transform="translate(28.159 20.136)"/><path class="d" d="M1.338,13.2,17.149,4.258l-.452-.8A6.8,6.8,0,0,0,7.422.885C3.153,3.3,3.085,3.3,2.492,3.787A6.807,6.807,0,0,0,.885,12.4Z" transform="translate(0 0)"/><path class="d" d="M22.493,1.834,21.866.726A1.432,1.432,0,0,0,19.918.184C19.1.648,1.107,10.823.725,11.039a1.432,1.432,0,0,0-.541,1.948L.811,14.1a1.925,1.925,0,0,0,2.623.728L21.765,4.457A1.925,1.925,0,0,0,22.493,1.834Z" transform="translate(0.322 5.589)"/></g></g></svg>