<svg xmlns="http://www.w3.org/2000/svg" xmlns:xlink="http://www.w3.org/1999/xlink" width="64" height="64" viewBox="0 0 64 64"><defs><style>.a{fill:#e4f3fa;}.b{fill:#006491;}.c{filter:url(#a);}</style><filter id="a" x="0" y="0" width="64" height="64" filterUnits="userSpaceOnUse"><feOffset dy="2" input="SourceAlpha"/><feGaussianBlur stdDeviation="4" result="b"/><feFlood flood-opacity="0.078"/><feComposite operator="in" in2="b"/><feComposite in="SourceGraphic"/></filter></defs><g transform="translate(-1314 -584)"><g class="c" transform="matrix(1, 0, 0, 1, 1314, 584)"><path class="a" d="M6,0H40V40H6a6,6,0,0,1-6-6V6A6,6,0,0,1,6,0Z" transform="translate(12 10)"/></g><g transform="translate(1352.635 714.342) rotate(180)"><path class="b" d="M6.318,104.342a.882.882,0,0,1-.625-.259L.26,98.651A.885.885,0,1,1,1.511,97.4l4.807,4.807L11.124,97.4a.885.885,0,0,1,1.251,1.251l-5.432,5.432A.882.882,0,0,1,6.318,104.342Z"/></g></g></svg>