<svg xmlns="http://www.w3.org/2000/svg" width="25.509" height="17.86" viewBox="0 0 25.509 17.86"><defs><style>.a{fill:#ff8300;}</style></defs><path class="a" d="M24.983-3.287a3.2,3.2,0,0,0-2.248-2.249c-2-.546-9.981-.546-9.981-.546s-7.984,0-9.981.525A3.261,3.261,0,0,0,.525-3.287,33.673,33.673,0,0,0,0,2.848,33.55,33.55,0,0,0,.525,8.984a3.2,3.2,0,0,0,2.248,2.248c2.017.546,9.981.546,9.981.546s7.984,0,9.981-.525A3.2,3.2,0,0,0,24.984,9a33.684,33.684,0,0,0,.525-6.135A31.965,31.965,0,0,0,24.983-3.287ZM10.212,6.672V-.976l6.64,3.824Zm0,0" transform="translate(0 6.082)"/></svg>